<svg width="307" height="446" viewBox="0 0 307 446" fill="none" xmlns="http://www.w3.org/2000/svg">
<path d="M87 300V144H126.9V166.8C135.1 149.2 151 140.4 174.6 140.4C185.8 140.4 195.9 143 204.9 148.2C213.9 153.4 221 160.8 226.2 170.4C231.4 180 234 191.4 234 204.6V300H193.5V214.5C193.5 200.9 190.4 191.1 184.2 185.1C178 178.9 169.9 175.8 159.9 175.8C151.3 175.8 143.7 178.9 137.1 185.1C130.7 191.1 127.5 200.9 127.5 214.5V300H87Z" fill="white"/>
<path d="M153.5 65C238.276 65 307 133.724 307 218.5C307 271.851 279.78 318.842 238.472 346.351L230.126 307.325C255.04 285.814 270.809 253.999 270.809 218.5C270.809 153.712 218.288 101.191 153.5 101.191C88.7121 101.191 36.1914 153.712 36.1914 218.5C36.1914 280.338 84.0383 330.999 144.73 335.484L152.538 371.993C68.2051 371.476 0 302.955 0 218.5C0 133.724 68.7243 65 153.5 65Z" fill="url(#paint0_linear_21_193)"/>
<path d="M257.587 316.253C256.332 322.223 254.272 327.78 251.526 332.605C248.779 337.43 245.399 341.429 241.579 344.374C237.759 347.318 233.573 349.151 229.26 349.768C224.948 350.384 220.593 349.772 216.445 347.965C212.297 346.159 208.437 343.195 205.085 339.242C201.733 335.288 198.955 330.423 196.909 324.924C194.863 319.425 193.59 313.4 193.161 307.193C192.733 300.986 193.159 294.718 194.413 288.747L224.995 302.063C224.955 302.252 224.942 302.452 224.955 302.649C224.969 302.847 225.009 303.038 225.075 303.213C225.14 303.388 225.228 303.543 225.335 303.669C225.441 303.795 225.564 303.889 225.696 303.946C225.828 304.004 225.967 304.023 226.104 304.004C226.241 303.984 226.374 303.926 226.496 303.832C226.617 303.738 226.725 303.611 226.812 303.458C226.899 303.304 226.965 303.127 227.005 302.937L257.587 316.253Z" fill="white"/>
<rect x="216" y="292" width="18" height="24" fill="white"/>
<defs>
<linearGradient id="paint0_linear_21_193" x1="198" y1="380.5" x2="249.128" y2="341.796" gradientUnits="userSpaceOnUse">
<stop stop-color="#FF8000"/>
<stop offset="1" stop-color="white"/>
</linearGradient>
</defs>
</svg>
