<svg width="307" height="446" viewBox="0 0 307 446" fill="none" xmlns="http://www.w3.org/2000/svg">
<path d="M87 300V144H126.9V166.8C135.1 149.2 151 140.4 174.6 140.4C185.8 140.4 195.9 143 204.9 148.2C213.9 153.4 221 160.8 226.2 170.4C231.4 180 234 191.4 234 204.6V300H193.5V214.5C193.5 200.9 190.4 191.1 184.2 185.1C178 178.9 169.9 175.8 159.9 175.8C151.3 175.8 143.7 178.9 137.1 185.1C130.7 191.1 127.5 200.9 127.5 214.5V300H87Z" fill="white"/>
<path d="M153.5 65C238.276 65 307 133.724 307 218.5C307 269.156 282.461 314.079 244.623 342.035L236.032 301.861C257.505 280.601 270.809 251.105 270.809 218.5C270.809 153.712 218.288 101.191 153.5 101.191C88.7121 101.191 36.1914 153.712 36.1914 218.5C36.1914 280.338 84.0383 330.999 144.73 335.484L152.538 371.993C68.2051 371.476 0 302.955 0 218.5C0 133.724 68.7243 65 153.5 65Z" fill="url(#paint0_linear_21_193)"/>
<path d="M257.587 316.674C256.332 322.393 254.272 327.715 251.526 332.337C248.779 336.959 245.399 340.79 241.579 343.611C237.759 346.431 233.573 348.187 229.26 348.777C224.948 349.368 220.593 348.781 216.445 347.051C212.297 345.321 208.437 342.482 205.085 338.695C201.733 334.908 198.955 330.247 196.909 324.98C194.863 319.713 193.59 313.941 193.161 307.995C192.733 302.049 193.159 296.045 194.413 290.326L226 303.5L257.587 316.674Z" fill="white"/>
<path d="M199.627 304.664C200.654 301.288 202.146 298.189 204.019 295.544C205.891 292.898 208.108 290.758 210.542 289.245C212.977 287.732 215.581 286.876 218.206 286.727C220.831 286.577 223.426 287.135 225.842 288.371C228.258 289.607 230.449 291.496 232.288 293.929C234.128 296.363 235.581 299.293 236.564 302.554C237.546 305.814 238.04 309.341 238.017 312.933C237.993 316.524 237.453 320.11 236.427 323.485L218.027 314.074L199.627 304.664Z" fill="white"/>
<defs>
<linearGradient id="paint0_linear_21_193" x1="198" y1="380.5" x2="249.128" y2="341.796" gradientUnits="userSpaceOnUse">
<stop stop-color="#FF8000"/>
<stop offset="1" stop-color="white"/>
</linearGradient>
</defs>
</svg>
